<svg xmlns="http://www.w3.org/2000/svg" viewBox="0 0 1800 520" role="img" aria-labelledby="title desc">
  <title id="title">Regenerative Dermatology</title>
  <desc id="desc">Identity artwork for the Regenerative Dermatology speciality center with a botanical regenerative mark and supporting quote.</desc>
  <rect width="1800" height="520" fill="transparent"/>

  <g transform="translate(900 92)">
    <g transform="translate(-58 0)">
      <path d="M54 8c-28 7-53 27-67 51-16 28-19 60-10 98 40-15 67-35 83-60 17-26 25-55 22-89-1 0-12 0-28 0z" fill="#d8b467"/>
      <path d="M65 8c32 12 54 30 68 53 14 23 18 50 13 81-31-7-55-20-72-39-21-24-31-55-31-95 5 0 12 0 22 0z" fill="#9bcb54"/>
      <path d="M60 102c-1 37-1 72 0 106" fill="none" stroke="#1d2018" stroke-width="7" stroke-linecap="round"/>
      <path d="M60 132c-14-16-28-29-43-38" fill="none" stroke="#1d2018" stroke-width="7" stroke-linecap="round"/>
      <path d="M62 122c16-17 33-31 50-41" fill="none" stroke="#1d2018" stroke-width="7" stroke-linecap="round"/>
    </g>
  </g>

  <g fill="#1d2018">
    <text x="900" y="286" text-anchor="middle" font-family="Cormorant Garamond, Georgia, serif" font-size="126" letter-spacing="1">Regenerative Dermatology</text>
    <text x="900" y="364" text-anchor="middle" font-family="DM Sans, Arial, sans-serif" font-size="34" letter-spacing="8">REPAIR . RENEW . RESTORE</text>
  </g>

  <g stroke="#8ea03d" stroke-width="7" stroke-linecap="round">
    <line x1="240" y1="336" x2="500" y2="336"/>
    <line x1="1300" y1="336" x2="1560" y2="336"/>
  </g>
</svg>
